<svg id="svg" xmlns="http://www.w3.org/2000/svg" xmlns:xlink="http://www.w3.org/1999/xlink" width="400" height="400" viewBox="0, 0, 400,400"><g id="svgg"><path id="path0" d="M87.928 0.775 C 87.924 1.204,87.954 1.674,87.996 1.819 C 88.038 1.964,88.044 2.083,88.011 2.083 C 87.977 2.083,87.946 5.588,87.941 9.871 C 87.936 14.154,87.908 17.697,87.878 17.746 C 87.848 17.794,87.849 17.875,87.880 17.925 C 87.911 17.976,87.945 27.191,87.954 38.404 C 87.964 49.617,87.983 58.829,87.996 58.875 C 88.009 58.921,88.011 58.977,88.000 59.000 C 87.984 59.034,87.931 81.408,87.919 92.958 C 87.914 97.967,87.903 116.453,87.905 116.625 C 87.908 116.802,87.909 192.092,87.907 192.375 C 87.906 192.467,87.926 224.942,87.951 264.542 C 87.977 304.142,87.996 337.085,87.994 337.750 C 87.991 338.622,88.007 378.256,88.010 378.875 C 88.010 378.921,88.007 382.352,88.003 386.500 C 87.999 390.648,87.997 395.382,87.998 397.021 L 88.000 400.000 89.025 400.000 L 90.051 400.000 90.040 202.354 C 90.034 93.649,90.001 4.633,89.966 4.542 C 89.932 4.450,89.874 4.300,89.838 4.208 C 89.769 4.031,89.752 3.600,89.725 1.417 L 89.708 0.042 88.822 0.018 L 87.936 -0.005 87.928 0.775 M99.458 3.521 C 99.459 5.457,99.488 7.086,99.523 7.140 C 99.558 7.194,99.554 7.258,99.516 7.282 C 99.477 7.306,99.455 8.968,99.467 10.975 C 99.479 12.983,99.489 14.681,99.489 14.750 C 99.490 15.025,99.479 58.232,99.478 58.542 C 99.474 59.666,99.491 323.552,99.496 327.208 C 99.505 334.965,99.506 352.040,99.496 358.125 C 99.491 361.333,99.487 363.996,99.487 364.042 C 99.486 364.087,99.487 365.606,99.487 367.417 C 99.487 369.227,99.487 370.765,99.487 370.833 C 99.487 370.902,99.492 377.493,99.499 385.479 L 99.511 400.000 100.380 400.000 L 101.250 400.000 101.254 398.938 C 101.257 398.353,101.258 397.575,101.257 397.208 C 101.255 396.618,101.260 393.341,101.263 393.125 C 101.268 392.790,101.256 387.538,101.249 386.875 C 101.244 386.417,101.241 385.854,101.242 385.625 C 101.251 382.785,101.253 343.666,101.243 343.613 C 101.236 343.574,101.236 343.504,101.244 343.458 C 101.256 343.387,101.265 69.041,101.253 66.083 C 101.251 65.510,101.251 63.729,101.253 62.125 C 101.254 60.521,101.257 55.496,101.259 50.958 C 101.260 46.421,101.263 42.652,101.264 42.583 C 101.266 42.515,101.262 41.746,101.257 40.875 C 101.252 40.004,101.246 34.810,101.243 29.333 C 101.238 17.567,101.238 19.723,101.244 16.125 C 101.246 14.475,101.250 10.725,101.251 7.792 C 101.252 4.858,101.254 2.402,101.256 2.333 C 101.257 2.265,101.252 1.711,101.245 1.104 L 101.231 0.000 100.344 0.000 L 99.457 0.000 99.458 3.521 M113.323 0.063 C 113.244 0.522,113.212 161.508,113.253 349.396 L 113.264 400.000 114.132 400.000 L 115.000 400.000 115.003 399.563 C 115.004 399.322,115.000 398.075,114.992 396.792 C 114.978 394.361,114.978 394.081,114.998 392.708 C 115.005 392.250,115.005 391.837,114.999 391.792 C 114.992 391.746,114.989 391.521,114.990 391.292 C 114.993 390.855,114.996 384.020,114.994 383.083 C 114.993 382.785,114.995 381.154,114.998 379.458 C 115.003 376.400,115.002 371.918,114.993 363.500 C 114.990 361.094,114.989 359.050,114.989 358.958 C 114.989 358.867,114.989 355.923,114.989 352.417 C 114.989 348.910,114.989 346.004,114.989 345.958 C 114.989 345.912,114.994 345.406,114.999 344.833 C 115.004 344.260,115.007 342.667,115.007 341.292 C 115.006 339.917,115.003 279.598,114.998 207.250 C 114.994 134.902,114.990 75.671,114.988 75.625 C 114.987 75.579,114.987 74.679,114.988 73.625 C 114.989 72.571,114.990 71.633,114.989 71.542 C 114.989 71.450,114.988 68.075,114.988 64.042 C 114.988 60.008,114.987 56.671,114.986 56.625 C 114.986 56.579,114.989 53.917,114.994 50.708 C 114.999 47.500,114.998 44.837,114.992 44.792 C 114.985 44.746,114.986 44.676,114.994 44.636 C 115.001 44.595,115.003 42.983,114.998 41.052 C 114.992 39.121,114.988 37.485,114.989 37.417 C 114.989 37.348,114.993 36.673,114.997 35.917 C 115.002 35.160,114.983 26.929,114.955 17.625 C 114.901 -0.347,114.901 0.176,114.967 0.070 C 114.990 0.031,114.633 -0.000,114.172 -0.000 C 113.711 -0.000,113.329 0.028,113.323 0.063 M125.496 0.688 C 125.493 1.066,125.492 1.675,125.494 2.042 C 125.497 2.738,125.490 4.029,125.482 4.458 C 125.479 4.596,125.485 4.821,125.495 4.958 C 125.510 5.158,125.521 8.047,125.509 8.646 C 125.503 8.931,125.503 9.551,125.508 10.208 C 125.511 10.575,125.508 10.912,125.501 10.958 C 125.459 11.249,125.491 14.417,125.537 14.492 C 125.568 14.542,125.563 14.583,125.526 14.583 C 125.471 14.583,125.458 17.455,125.508 18.583 C 125.515 18.744,125.514 20.094,125.505 21.583 C 125.483 25.501,125.483 25.774,125.508 26.229 C 125.512 26.309,125.512 26.656,125.508 27.000 C 125.504 27.344,125.504 27.681,125.508 27.750 C 125.519 27.963,125.506 35.110,125.493 35.375 C 125.481 35.642,125.480 35.717,125.490 37.125 C 125.493 37.629,125.495 38.192,125.495 38.375 C 125.494 38.558,125.496 39.758,125.499 41.042 C 125.506 43.781,125.506 45.920,125.500 47.542 C 125.497 48.183,125.502 48.952,125.509 49.250 C 125.524 49.857,125.524 49.924,125.510 50.917 C 125.505 51.306,125.504 51.869,125.508 52.167 C 125.514 52.609,125.513 53.686,125.505 54.625 C 125.504 54.717,125.508 55.110,125.513 55.500 C 125.518 55.890,125.519 56.283,125.517 56.375 C 125.514 56.467,125.513 57.029,125.513 57.625 C 125.514 58.221,125.512 58.746,125.510 58.792 C 125.497 59.027,125.490 59.967,125.489 61.542 C 125.489 62.504,125.487 63.385,125.486 63.500 C 125.485 63.615,125.487 64.383,125.491 65.208 C 125.495 66.033,125.498 67.252,125.498 67.917 C 125.494 72.755,125.496 77.705,125.504 81.583 C 125.508 84.081,125.510 86.181,125.508 86.250 C 125.505 86.319,125.506 101.825,125.509 120.708 C 125.512 139.592,125.514 155.098,125.514 155.167 C 125.514 155.316,125.509 226.967,125.509 227.208 C 125.509 227.300,125.507 233.131,125.504 240.167 C 125.501 247.202,125.508 286.044,125.520 326.482 L 125.542 400.005 126.417 399.982 L 127.292 399.958 127.297 388.766 C 127.299 382.610,127.278 377.559,127.249 377.541 C 127.219 377.523,127.222 377.309,127.254 377.066 C 127.287 376.824,127.312 291.884,127.310 188.313 L 127.307 0.000 126.404 0.000 L 125.500 0.000 125.496 0.688 M142.937 2.104 C 142.926 3.261,142.912 4.283,142.908 4.375 C 142.903 4.467,142.902 4.823,142.904 5.167 C 142.907 5.510,142.899 7.742,142.886 10.125 C 142.873 12.508,142.895 14.524,142.934 14.604 C 142.974 14.686,142.974 14.750,142.934 14.750 C 142.878 14.750,142.869 16.500,142.912 19.125 C 142.913 19.171,142.900 20.566,142.884 22.225 C 142.868 23.885,142.882 25.392,142.915 25.575 C 142.952 25.779,142.942 25.941,142.888 25.995 C 142.826 26.057,142.827 26.083,142.891 26.083 C 142.951 26.083,142.962 26.178,142.924 26.354 C 142.846 26.717,142.866 30.517,142.946 30.647 C 142.981 30.704,142.974 30.750,142.931 30.750 C 142.852 30.750,142.883 31.712,142.966 31.846 C 142.990 31.885,142.976 31.917,142.935 31.917 C 142.845 31.917,142.858 38.505,142.948 38.650 C 142.982 38.705,142.979 38.750,142.942 38.750 C 142.894 38.750,142.868 51.544,142.915 52.500 C 142.918 52.569,142.905 54.031,142.886 55.750 C 142.866 57.583,142.883 58.935,142.929 59.021 C 142.977 59.112,142.976 59.167,142.926 59.167 C 142.879 59.167,142.863 59.446,142.886 59.854 C 142.907 60.232,142.922 60.579,142.918 60.625 C 142.879 61.084,142.888 69.440,142.927 69.465 C 142.956 69.482,142.950 69.657,142.915 69.853 C 142.834 70.301,142.828 323.841,142.909 324.604 C 142.941 324.914,142.945 325.167,142.917 325.167 C 142.889 325.167,142.879 326.432,142.893 327.979 C 142.908 329.526,142.918 330.829,142.915 330.875 C 142.872 331.756,142.894 337.611,142.941 337.640 C 142.977 337.662,142.981 337.762,142.950 337.860 C 142.870 338.112,142.851 344.167,142.930 344.393 C 142.965 344.494,142.967 344.594,142.934 344.614 C 142.894 344.639,142.873 375.221,142.911 379.167 C 142.911 379.235,142.903 381.554,142.892 384.320 C 142.882 387.085,142.902 389.366,142.938 389.388 C 142.974 389.410,142.975 389.472,142.941 389.527 C 142.879 389.628,142.839 399.708,142.900 399.896 C 142.925 399.970,143.181 400.000,143.799 400.000 L 144.664 400.000 144.662 395.896 C 144.661 393.639,144.661 388.998,144.661 385.583 C 144.661 382.169,144.662 366.962,144.661 351.792 C 144.661 336.621,144.663 315.396,144.665 304.625 C 144.667 293.854,144.668 271.204,144.668 254.292 C 144.668 237.379,144.668 218.273,144.668 211.833 C 144.669 174.801,144.668 122.999,144.665 112.667 C 144.664 106.090,144.659 81.311,144.654 57.604 C 144.647 25.857,144.620 14.500,144.552 14.499 C 144.490 14.498,144.493 14.475,144.560 14.433 C 144.646 14.378,144.651 4.941,144.568 0.521 L 144.558 0.000 143.758 0.000 L 142.958 0.000 142.937 2.104 M164.802 164.143 C 164.813 254.425,164.826 329.379,164.829 330.708 C 164.844 335.880,164.838 346.806,164.820 348.958 C 164.820 349.004,164.823 360.507,164.829 374.521 L 164.838 400.000 165.711 400.000 C 166.560 400.000,166.583 399.995,166.585 399.813 C 166.586 399.709,166.585 396.569,166.582 392.833 C 166.580 389.098,166.580 381.879,166.583 376.792 C 166.585 371.704,166.586 366.454,166.583 365.125 C 166.578 362.204,166.578 359.558,166.585 357.542 C 166.588 356.717,166.588 353.435,166.585 350.250 C 166.576 339.146,166.576 328.194,166.585 326.250 C 166.590 325.173,166.593 323.710,166.590 323.000 C 166.586 321.378,166.586 324.309,166.582 182.375 C 166.581 117.154,166.578 63.379,166.576 62.875 C 166.573 61.943,166.574 49.482,166.579 42.958 C 166.580 40.987,166.581 35.981,166.581 31.833 C 166.581 27.685,166.581 22.885,166.582 21.167 C 166.584 13.912,166.577 8.606,166.560 4.458 L 166.542 0.042 165.662 0.018 L 164.781 -0.005 164.802 164.143 M233.465 0.073 C 233.440 0.113,233.420 2.110,233.421 4.510 C 233.422 6.911,233.422 10.938,233.420 13.458 C 233.419 15.979,233.418 19.448,233.418 21.167 C 233.419 22.885,233.419 27.685,233.419 31.833 C 233.419 35.981,233.420 40.987,233.421 42.958 C 233.426 49.482,233.427 61.943,233.424 62.875 C 233.422 63.379,233.419 117.154,233.418 182.375 C 233.414 324.309,233.414 321.378,233.410 323.000 C 233.407 323.710,233.410 325.173,233.415 326.250 C 233.424 328.194,233.424 339.146,233.415 350.250 C 233.412 353.435,233.412 356.717,233.415 357.542 C 233.422 359.558,233.422 362.204,233.417 365.125 C 233.414 366.454,233.415 371.704,233.417 376.792 C 233.420 381.879,233.420 389.098,233.418 392.833 C 233.415 396.569,233.414 399.709,233.415 399.813 C 233.417 399.995,233.440 400.000,234.289 400.000 L 235.162 400.000 235.171 374.521 C 235.177 360.507,235.180 349.004,235.180 348.958 C 235.162 346.806,235.156 335.880,235.171 330.708 C 235.174 329.379,235.187 254.426,235.198 164.146 L 235.219 -0.000 234.364 -0.000 C 233.894 -0.000,233.490 0.033,233.465 0.073 M255.432 0.521 C 255.349 4.941,255.354 14.378,255.440 14.433 C 255.507 14.475,255.510 14.498,255.448 14.499 C 255.380 14.500,255.353 25.857,255.346 57.604 C 255.341 81.311,255.336 106.090,255.335 112.667 C 255.332 122.999,255.331 174.801,255.332 211.833 C 255.332 218.273,255.332 237.379,255.332 254.292 C 255.332 271.204,255.333 293.854,255.335 304.625 C 255.337 315.396,255.339 336.621,255.339 351.792 C 255.338 366.962,255.339 382.169,255.339 385.583 C 255.339 388.998,255.339 393.639,255.338 395.896 L 255.336 400.000 256.201 400.000 C 256.819 400.000,257.075 399.970,257.100 399.896 C 257.161 399.708,257.121 389.628,257.059 389.527 C 257.025 389.472,257.026 389.410,257.062 389.388 C 257.098 389.366,257.118 387.085,257.108 384.320 C 257.097 381.554,257.089 379.235,257.089 379.167 C 257.127 375.221,257.106 344.639,257.066 344.614 C 257.033 344.594,257.035 344.494,257.070 344.393 C 257.149 344.167,257.130 338.112,257.050 337.860 C 257.019 337.762,257.023 337.662,257.059 337.640 C 257.106 337.611,257.128 331.756,257.085 330.875 C 257.082 330.829,257.092 329.526,257.107 327.979 C 257.121 326.432,257.111 325.167,257.083 325.167 C 257.055 325.167,257.059 324.914,257.091 324.604 C 257.172 323.841,257.166 70.301,257.085 69.853 C 257.050 69.657,257.044 69.482,257.073 69.465 C 257.112 69.440,257.121 61.084,257.082 60.625 C 257.078 60.579,257.093 60.232,257.114 59.854 C 257.137 59.446,257.121 59.167,257.074 59.167 C 257.024 59.167,257.023 59.112,257.071 59.021 C 257.117 58.935,257.134 57.583,257.114 55.750 C 257.095 54.031,257.082 52.569,257.085 52.500 C 257.132 51.544,257.106 38.750,257.058 38.750 C 257.021 38.750,257.018 38.705,257.052 38.650 C 257.142 38.505,257.155 31.917,257.065 31.917 C 257.024 31.917,257.010 31.885,257.034 31.846 C 257.117 31.712,257.148 30.750,257.069 30.750 C 257.026 30.750,257.019 30.704,257.054 30.647 C 257.134 30.517,257.154 26.717,257.076 26.354 C 257.038 26.178,257.049 26.083,257.109 26.083 C 257.173 26.083,257.174 26.057,257.112 25.995 C 257.058 25.941,257.048 25.779,257.085 25.575 C 257.118 25.392,257.132 23.885,257.116 22.225 C 257.100 20.566,257.087 19.171,257.088 19.125 C 257.131 16.500,257.122 14.750,257.066 14.750 C 257.026 14.750,257.026 14.686,257.066 14.604 C 257.105 14.524,257.127 12.508,257.114 10.125 C 257.101 7.742,257.093 5.510,257.096 5.167 C 257.098 4.823,257.097 4.467,257.092 4.375 C 257.088 4.283,257.074 3.261,257.063 2.104 L 257.042 0.000 256.242 0.000 L 255.442 0.000 255.432 0.521 M272.690 188.313 C 272.688 291.884,272.713 376.824,272.746 377.066 C 272.778 377.309,272.781 377.523,272.751 377.541 C 272.722 377.559,272.701 382.610,272.703 388.766 L 272.708 399.958 273.583 399.982 L 274.458 400.005 274.480 326.482 C 274.492 286.044,274.499 247.202,274.496 240.167 C 274.493 233.131,274.491 227.300,274.491 227.208 C 274.491 226.967,274.486 155.316,274.486 155.167 C 274.486 155.098,274.488 139.592,274.491 120.708 C 274.494 101.825,274.495 86.319,274.492 86.250 C 274.490 86.181,274.492 84.081,274.496 81.583 C 274.504 77.705,274.506 72.755,274.502 67.917 C 274.502 67.252,274.505 66.033,274.509 65.208 C 274.513 64.383,274.515 63.615,274.514 63.500 C 274.513 63.385,274.511 62.504,274.511 61.542 C 274.510 59.967,274.503 59.027,274.490 58.792 C 274.488 58.746,274.486 58.221,274.487 57.625 C 274.487 57.029,274.486 56.467,274.483 56.375 C 274.481 56.283,274.482 55.890,274.487 55.500 C 274.492 55.110,274.496 54.717,274.495 54.625 C 274.487 53.686,274.486 52.609,274.492 52.167 C 274.496 51.869,274.495 51.306,274.490 50.917 C 274.476 49.924,274.476 49.857,274.491 49.250 C 274.498 48.952,274.503 48.183,274.500 47.542 C 274.494 45.920,274.494 43.781,274.501 41.042 C 274.504 39.758,274.506 38.558,274.505 38.375 C 274.505 38.192,274.507 37.629,274.510 37.125 C 274.520 35.717,274.519 35.642,274.507 35.375 C 274.494 35.110,274.481 27.963,274.492 27.750 C 274.496 27.681,274.496 27.344,274.492 27.000 C 274.488 26.656,274.488 26.309,274.492 26.229 C 274.517 25.774,274.517 25.501,274.495 21.583 C 274.486 20.094,274.485 18.744,274.492 18.583 C 274.542 17.455,274.529 14.583,274.474 14.583 C 274.437 14.583,274.432 14.542,274.463 14.492 C 274.509 14.417,274.541 11.249,274.499 10.958 C 274.492 10.912,274.489 10.575,274.492 10.208 C 274.497 9.551,274.497 8.931,274.491 8.646 C 274.479 8.047,274.490 5.158,274.505 4.958 C 274.515 4.821,274.521 4.596,274.518 4.458 C 274.510 4.029,274.503 2.738,274.506 2.042 C 274.508 1.675,274.507 1.066,274.504 0.688 L 274.500 0.000 273.596 0.000 L 272.693 0.000 272.690 188.313 M285.033 0.070 C 285.099 0.176,285.099 -0.347,285.045 17.625 C 285.017 26.929,284.998 35.160,285.003 35.917 C 285.007 36.673,285.011 37.348,285.011 37.417 C 285.012 37.485,285.008 39.121,285.002 41.052 C 284.997 42.983,284.999 44.595,285.006 44.636 C 285.014 44.676,285.015 44.746,285.008 44.792 C 285.002 44.837,285.001 47.500,285.006 50.708 C 285.011 53.917,285.014 56.579,285.014 56.625 C 285.013 56.671,285.012 60.008,285.012 64.042 C 285.012 68.075,285.011 71.450,285.011 71.542 C 285.010 71.633,285.011 72.571,285.012 73.625 C 285.013 74.679,285.013 75.579,285.012 75.625 C 285.010 75.671,285.006 134.902,285.002 207.250 C 284.997 279.598,284.994 339.917,284.993 341.292 C 284.993 342.667,284.996 344.260,285.001 344.833 C 285.006 345.406,285.011 345.912,285.011 345.958 C 285.011 346.004,285.011 348.910,285.011 352.417 C 285.011 355.923,285.011 358.867,285.011 358.958 C 285.011 359.050,285.010 361.094,285.007 363.500 C 284.998 371.918,284.997 376.400,285.002 379.458 C 285.005 381.154,285.007 382.785,285.006 383.083 C 285.004 384.020,285.007 390.855,285.010 391.292 C 285.011 391.521,285.008 391.746,285.001 391.792 C 284.995 391.837,284.995 392.250,285.002 392.708 C 285.022 394.081,285.022 394.361,285.008 396.792 C 285.000 398.075,284.996 399.322,284.997 399.563 L 285.000 400.000 285.868 400.000 L 286.736 400.000 286.747 349.396 C 286.788 161.508,286.756 0.522,286.677 0.063 C 286.671 0.028,286.289 0.000,285.828 0.000 C 285.367 0.000,285.010 0.031,285.033 0.070 M298.755 1.104 C 298.748 1.711,298.743 2.265,298.744 2.333 C 298.746 2.402,298.748 4.858,298.749 7.792 C 298.750 10.725,298.754 14.475,298.756 16.125 C 298.762 19.723,298.762 17.567,298.757 29.333 C 298.754 34.810,298.748 40.004,298.743 40.875 C 298.738 41.746,298.734 42.515,298.736 42.583 C 298.737 42.652,298.740 46.421,298.741 50.958 C 298.743 55.496,298.746 60.521,298.747 62.125 C 298.749 63.729,298.749 65.510,298.747 66.083 C 298.735 69.041,298.744 343.387,298.756 343.458 C 298.764 343.504,298.764 343.574,298.757 343.613 C 298.747 343.666,298.749 382.785,298.758 385.625 C 298.759 385.854,298.756 386.417,298.751 386.875 C 298.744 387.538,298.732 392.790,298.737 393.125 C 298.740 393.341,298.745 396.618,298.743 397.208 C 298.742 397.575,298.743 398.353,298.746 398.938 L 298.750 400.000 299.620 400.000 L 300.489 400.000 300.501 385.479 C 300.508 377.493,300.513 370.902,300.513 370.833 C 300.513 370.765,300.513 369.227,300.513 367.417 C 300.513 365.606,300.514 364.087,300.513 364.042 C 300.513 363.996,300.509 361.333,300.504 358.125 C 300.494 352.040,300.495 334.965,300.504 327.208 C 300.509 323.552,300.526 59.666,300.522 58.542 C 300.521 58.232,300.510 15.025,300.511 14.750 C 300.511 14.681,300.521 12.983,300.533 10.975 C 300.545 8.968,300.523 7.306,300.484 7.282 C 300.446 7.258,300.442 7.194,300.477 7.140 C 300.512 7.086,300.541 5.457,300.542 3.521 L 300.543 0.000 299.656 0.000 L 298.769 0.000 298.755 1.104 M310.301 0.067 C 310.279 0.105,310.255 0.939,310.249 1.922 C 310.243 2.904,310.238 3.765,310.237 3.833 C 310.236 3.955,310.166 4.200,310.035 4.542 C 310.000 4.633,309.966 93.649,309.960 202.354 L 309.949 400.000 310.975 400.000 L 312.000 400.000 312.002 397.021 C 312.003 395.382,312.001 390.648,311.997 386.500 C 311.993 382.352,311.990 378.921,311.990 378.875 C 311.993 378.256,312.009 338.622,312.006 337.750 C 312.004 337.085,312.023 304.142,312.049 264.542 C 312.074 224.942,312.094 192.467,312.093 192.375 C 312.091 192.092,312.092 116.802,312.095 116.625 C 312.097 116.453,312.086 97.967,312.081 92.958 C 312.069 81.408,312.016 59.034,312.000 59.000 C 311.989 58.977,311.991 58.921,312.004 58.875 C 312.017 58.829,312.036 49.617,312.046 38.404 C 312.055 27.191,312.089 17.976,312.120 17.925 C 312.151 17.875,312.152 17.794,312.122 17.746 C 312.092 17.697,312.064 14.154,312.059 9.871 C 312.054 5.588,312.023 2.083,311.989 2.083 C 311.956 2.083,311.962 1.964,312.004 1.819 C 312.046 1.674,312.076 1.205,312.072 0.777 L 312.064 0.000 311.204 0.000 C 310.730 0.000,310.324 0.030,310.301 0.067 " stroke="none" fill="#000000" fill-rule="evenodd"></path></g></svg>